HIERARCHY
ROOT Hips
{
 OFFSET 0.000000 0.000000 0.000000
 CHANNELS 6 Xposition Yposition Zposition Yrotation Xrotation Zrotation
 JOINT Chest
 {
  OFFSET 0.000000 9.857222 0.000240
  CHANNELS 3 Yrotation Xrotation Zrotation
  JOINT Chest2
  {
   OFFSET 0.000000 10.876940 -0.000436
   CHANNELS 3 Yrotation Xrotation Zrotation
   JOINT Chest3
   {
    OFFSET 0.000000 9.827798 0.000000
    CHANNELS 3 Yrotation Xrotation Zrotation
    JOINT Chest4
    {
     OFFSET 0.000000 9.827798 0.000000
     CHANNELS 3 Yrotation Xrotation Zrotation
     JOINT Neck
     {
      OFFSET 0.000000 13.831992 0.000000
      CHANNELS 3 Yrotation Xrotation Zrotation
      JOINT Head
      {
       OFFSET 0.000000 9.147643 -0.001036
       CHANNELS 3 Yrotation Xrotation Zrotation
       End Site
       {
        OFFSET 0.000000 17.515799 -0.000541
       }
      }
     }
     JOINT RightCollar
     {
      OFFSET -3.001579 7.717577 0.000000
      CHANNELS 3 Yrotation Xrotation Zrotation
      JOINT RightShoulder
      {
       OFFSET -14.002642 0.000000 0.000000
       CHANNELS 3 Yrotation Xrotation Zrotation
       JOINT RightElbow
       {
        OFFSET -30.053852 0.000000 0.000000
        CHANNELS 3 Yrotation Xrotation Zrotation
        JOINT RightWrist
        {
         OFFSET -24.564923 0.000000 -0.000000
         CHANNELS 3 Yrotation Xrotation Zrotation
         End Site
         {
          OFFSET -18.334355 0.000000 0.000000
         }
        }
       }
      }
     }
     JOINT LeftCollar
     {
      OFFSET 3.001579 7.717577 0.000000
      CHANNELS 3 Yrotation Xrotation Zrotation
      JOINT LeftShoulder
      {
       OFFSET 14.002642 0.000000 0.000000
       CHANNELS 3 Yrotation Xrotation Zrotation
       JOINT LeftElbow
       {
        OFFSET 30.053852 0.000000 0.000000
        CHANNELS 3 Yrotation Xrotation Zrotation
        JOINT LeftWrist
        {
         OFFSET 24.564923 0.000000 -0.000000
         CHANNELS 3 Yrotation Xrotation Zrotation
         End Site
         {
          OFFSET 18.334355 0.000000 0.000000
         }
        }
       }
      }
     }
    }
   }
  }
 }
 JOINT RightHip
 {
  OFFSET -8.003235 -0.001175 -0.000120
  CHANNELS 3 Yrotation Xrotation Zrotation
  JOINT RightKnee
  {
   OFFSET 0.000000 -41.759727 0.000113
   CHANNELS 3 Yrotation Xrotation Zrotation
   JOINT RightAnkle
   {
    OFFSET 0.000000 -40.728748 0.000159
    CHANNELS 3 Yrotation Xrotation Zrotation
    JOINT RightToe
    {
     OFFSET 0.000000 -6.515296 14.732841
     CHANNELS 3 Yrotation Xrotation Zrotation
     End Site
     {
      OFFSET 0.000000 -1.502839 6.412115
     }
    }
   }
  }
 }
 JOINT LeftHip
 {
  OFFSET 8.003235 -0.001175 -0.000120
  CHANNELS 3 Yrotation Xrotation Zrotation
  JOINT LeftKnee
  {
   OFFSET 0.000000 -41.759727 0.000113
   CHANNELS 3 Yrotation Xrotation Zrotation
   JOINT LeftAnkle
   {
    OFFSET 0.000000 -40.728748 0.000159
    CHANNELS 3 Yrotation Xrotation Zrotation
    JOINT LeftToe
    {
     OFFSET 0.000000 -6.515296 14.732841
     CHANNELS 3 Yrotation Xrotation Zrotation
     End Site
     {
      OFFSET 0.000000 -1.502839 6.412115
     }
    }
   }
  }
 }
}
MOTION
Frames: 7
Frame Time: 0.016667
19.451120 90.496521 16.320762 -33.799209 -6.514126 -0.811269 0.260267 2.921694 0.145447 -0.026519 1.407020 0.088169 -0.026519 1.407020 0.088169 -0.020091 1.055261 0.066185 -1.819971 29.536125 -0.537549 -3.128950 18.669759 -0.618634 6.381432 10.256528 4.309750 -13.338580 -42.035849 20.786157 83.265396 -54.972567 -67.951270 3.338726 -12.238064 9.483889 -7.480293 11.511885 -6.901850 25.298312 -24.378149 -21.593682 -135.446223 -28.176157 135.720417 0.011299 -2.863129 3.550458 -1.860622 16.267929 -5.136065 -0.762092 -4.008322 5.017280 -0.796729 -5.304883 0.849022 -0.360992 -0.012443 -0.120609 2.110793 6.930535 2.625992 -0.646741 3.242501 -2.137374 1.696759 -4.199582 0.211970 0.127998 0.090094 0.062351
19.436013 90.497939 16.326291 -33.534478 -6.561829 -0.834072 -0.077703 2.736032 0.112606 -0.108185 1.251730 0.071332 -0.108185 1.251730 0.071332 -0.081282 0.938785 0.053719 -1.788011 29.785580 -0.548478 -3.071023 19.132449 -0.649233 6.401539 10.931343 3.819580 -11.086592 -42.662546 17.105404 85.237077 -54.850824 -69.844476 3.216510 -12.503071 9.551854 -6.892325 11.786035 -6.426495 24.663679 -27.175874 -18.321434 -134.815926 -27.803692 134.208140 -0.208165 -2.920264 3.643337 -2.013689 16.334654 -5.123049 -0.823131 -3.946367 5.084112 -0.918819 -5.387898 0.716311 -0.238405 -0.002080 -0.053394 1.911148 6.930299 2.637963 -0.692245 3.307768 -2.135367 1.679892 -4.199595 0.197294 0.128676 0.080017 0.063376
19.424606 90.497582 16.314263 -33.438483 -6.510539 -0.830795 -0.231412 2.365064 0.067192 -0.177008 1.085243 0.048049 -0.177008 1.085243 0.048049 -0.132837 0.813918 0.036350 -1.770270 30.068070 -0.552988 -3.039741 19.656750 -0.666461 6.346308 11.661329 3.362125 -8.569026 -43.280365 13.230064 86.854947 -54.632480 -71.043213 3.087732 -12.726309 9.493423 -6.354433 12.261894 -5.938896 23.115236 -29.415097 -14.485378 -134.397909 -27.412145 132.976761 -0.330382 -2.822578 3.474861 -2.004253 16.282534 -5.104459 -0.887866 -3.910815 5.096803 -0.916121 -5.435899 0.673485 -0.246501 0.014939 -0.046162 1.958413 6.855756 2.664064 -0.813594 3.321920 -2.154928 1.647800 -4.188196 0.188830 0.135923 0.079075 0.066909
19.396785 90.498425 16.309994 -33.356474 -6.515940 -0.831990 -0.379461 1.977394 0.018385 -0.239079 0.905546 0.023709 -0.239079 0.905546 0.023709 -0.179341 0.679150 0.018136 -1.742546 30.367773 -0.556393 -2.991178 20.212962 -0.683738 6.214454 12.274065 2.884949 -5.680440 -43.577713 9.138031 87.629803 -54.354434 -71.303605 3.018127 -13.110393 9.586540 -5.802206 12.688013 -5.383151 20.719935 -30.463108 -10.110643 -133.844630 -27.107619 131.691374 -0.604465 -2.891179 3.561894 -2.068323 16.300683 -5.095037 -0.876068 -3.899161 5.099163 -0.913381 -5.473065 0.633873 -0.250544 0.024381 -0.043064 2.059878 6.867473 2.724777 -0.945769 3.296063 -2.199567 1.620381 -4.166882 0.183844 0.146816 0.076771 0.070422
19.364092 90.500053 16.303754 -33.336465 -6.495918 -0.850597 -0.491165 1.542549 -0.025482 -0.286680 0.708220 0.003827 -0.286680 0.708220 0.003827 -0.215012 0.531164 0.003203 -1.696199 30.655841 -0.563476 -2.909109 20.747376 -0.710278 6.067857 12.901868 2.443387 -2.476461 -43.531153 4.876152 87.974441 -53.990994 -71.122076 2.944635 -13.604155 9.847531 -5.299432 13.007446 -4.781568 17.770410 -30.444388 -5.362420 -133.223688 -26.832872 130.350398 -1.023212 -2.946311 4.006469 -2.053498 16.286405 -5.055353 -0.889369 -3.881262 5.102552 -0.897916 -5.496250 0.608971 -0.270249 0.023701 -0.054644 2.214072 6.860002 2.826129 -1.078477 3.266969 -2.271371 1.558677 -4.151274 0.186876 0.167565 0.075242 0.077650
19.332002 90.501110 16.291267 -33.385752 -6.434116 -0.897171 -0.589825 1.102809 -0.062263 -0.319996 0.505719 -0.010569 -0.319996 0.505719 -0.010569 -0.239987 0.379295 -0.007662 -1.612722 30.910943 -0.570975 -2.761227 21.220360 -0.742759 6.068757 13.433093 2.159460 0.910831 -43.387823 0.366906 87.860087 -53.558890 -70.335356 2.911047 -14.146224 10.013543 -4.897452 13.358653 -4.180805 14.788861 -30.234510 -0.536778 -132.356255 -27.235167 128.901952 -1.331185 -3.004183 4.070874 -1.980852 16.217925 -4.979105 -0.907928 -3.858632 5.108499 -0.864172 -5.511095 0.583274 -0.276584 0.024820 -0.067042 2.305758 6.800322 2.938137 -1.126214 3.270488 -2.326448 1.568939 -4.163406 0.176375 0.182675 0.081683 0.084062
19.307682 90.502288 16.273723 -33.483907 -6.349740 -0.969097 -0.660069 0.752891 -0.115176 -0.331234 0.339431 -0.028414 -0.331234 0.339431 -0.028414 -0.248409 0.254588 -0.021127 -1.491983 31.075958 -0.545644 -2.552436 21.526469 -0.721018 6.049194 13.596061 1.977329 4.594608 -42.966837 -4.221515 87.756923 -53.013763 -69.412174 2.937669 -14.607856 9.985027 -4.491232 13.829829 -3.469979 11.603641 -30.389911 4.123349 -130.968729 -28.578878 126.767068 -1.541105 -2.845977 3.888506 -1.924209 16.115701 -4.872725 -0.876839 -3.837639 5.095997 -0.858066 -5.520975 0.559625 -0.260165 0.031882 -0.071803 2.288488 6.690056 3.028306 -1.071753 3.337736 -2.340310 1.613056 -4.211444 0.163237 0.177666 0.093240 0.081516
